<?xml version="1.0" encoding="utf-8"?>
<!-- Generator: Adobe Illustrator 15.0.0, SVG Export Plug-In . SVG Version: 6.00 Build 0)  -->
<!DOCTYPE svg PUBLIC "-//W3C//DTD SVG 1.1//EN" "http://www.w3.org/Graphics/SVG/1.1/DTD/svg11.dtd">
<svg version="1.1" id="Capa_1" xmlns="http://www.w3.org/2000/svg" xmlns:xlink="http://www.w3.org/1999/xlink" x="0px" y="0px"
	 width="512px" height="512px" viewBox="0 0 512 512" enable-background="new 0 0 512 512" xml:space="preserve">
<g>
	<path fill="#888888" d="M503.455,436.74L383.152,312.457c-8.627-8.917-19.409-12.486-24.08-7.928
		c-4.687,4.526-15.477,0.966-24.104-7.951l-1.721-1.784c53.844-70.816,48.618-172.209-16.04-236.868
		c-70.568-70.568-184.985-70.568-255.544,0c-70.568,70.568-70.568,184.969,0,255.538c65.759,65.769,169.549,70.173,240.51,13.37
		l0.755,0.788c8.611,8.917,11.817,19.811,7.116,24.344c-4.68,4.536-1.496,15.438,7.14,24.338l120.239,124.332
		c8.626,8.893,22.841,9.157,31.766,0.522l33.745-32.65C511.825,459.894,512.066,445.688,503.455,436.74z M277.5,273.752
		c-48.563,48.569-127.587,48.569-176.142,0.017c-48.562-48.563-48.555-127.597,0-176.15c48.555-48.562,127.579-48.554,176.125,0.008
		C326.052,146.181,326.052,225.198,277.5,273.752z"/>
</g>
</svg>
